<svg id="visual" viewBox="0 0 900 600" width="900" height="600" xmlns="http://www.w3.org/2000/svg" xmlns:xlink="http://www.w3.org/1999/xlink" version="1.1"><path d="M0 512L37.5 522.7C75 533.3 150 554.7 225 555.5C300 556.3 375 536.7 450 530C525 523.3 600 529.7 675 534.5C750 539.3 825 542.7 862.5 544.3L900 546L900 601L862.5 601C825 601 750 601 675 601C600 601 525 601 450 601C375 601 300 601 225 601C150 601 75 601 37.5 601L0 601Z" fill="#000000" stroke-linecap="round" stroke-linejoin="miter"></path></svg>